<svg width="128" height="128" viewBox="0 0 128 128" xmlns="http://www.w3.org/2000/svg">
  <defs>
    <!-- 渐变背景 -->
    <linearGradient id="bgGradient" x1="0%" y1="0%" x2="100%" y2="100%">
      <stop offset="0%" stop-color="#4f46e5"/>
      <stop offset="100%" stop-color="#7c3aed"/>
    </linearGradient>
    
    <!-- 下载箭头渐变 -->
    <linearGradient id="arrowGradient" x1="0%" y1="0%" x2="100%" y2="100%">
      <stop offset="0%" stop-color="#ffffff"/>
      <stop offset="100%" stop-color="#e0e7ff"/>
    </linearGradient>
    
    <!-- 阴影滤镜 -->
    <filter id="shadow" x="-20%" y="-20%" width="140%" height="140%">
      <feDropShadow dx="3" dy="3" stdDeviation="4" flood-color="#000000" flood-opacity="0.4"/>
    </filter>
    
    <!-- 内部阴影滤镜 -->
    <filter id="innerShadow" x="-50%" y="-50%" width="200%" height="200%">
      <feDropShadow dx="1" dy="1" stdDeviation="2" flood-color="#000000" flood-opacity="0.3"/>
    </filter>
  </defs>
  
  <!-- 正方形背景 - 保持大小 -->
  <rect x="8" y="8" width="112" height="112" rx="20" ry="20" fill="url(#bgGradient)" filter="url(#shadow)"/>
  
  <!-- 云朵形状（代表网页）- 增加内边距，向里收缩 -->
  <path d="M28 36 C20 36, 12 42, 12 48 C12 54, 20 60, 28 60 L100 60 C108 60, 116 54, 116 48 C116 42, 108 36, 100 36 C96 28, 88 20, 76 20 C64 20, 56 28, 52 36 Z" 
        fill="#ffffff" opacity="0.95" filter="url(#innerShadow)"/>
  
  <!-- 下载箭头主体 - 保持大小 -->
  <rect x="56" y="42" width="16" height="45" fill="url(#arrowGradient)" rx="4"/>
  
  <!-- 箭头头部 - 保持大小 -->
  <path d="M38 80 L64 106 L90 80 Z" fill="url(#arrowGradient)" filter="url(#innerShadow)"/>
  
  <!-- 底部横线（代表文件夹）- 相应调整 -->
  <rect x="32" y="112" width="64" height="8" fill="#ffffff" opacity="0.95" rx="4"/>
  
  <!-- 装饰性小点 - 调整位置 -->
  <circle cx="42" cy="46" r="2.5" fill="#ffffff" opacity="0.8"/>
  <circle cx="86" cy="46" r="2.5" fill="#ffffff" opacity="0.8"/>
  <circle cx="64" cy="38" r="2" fill="#ffffff" opacity="0.9"/>
  
  <!-- 添加装饰性元素 -->
  <circle cx="74" cy="50" r="1.8" fill="#ffffff" opacity="0.6"/>
  <circle cx="54" cy="50" r="1.8" fill="#ffffff" opacity="0.6"/>
  <circle cx="64" cy="54" r="1.5" fill="#ffffff" opacity="0.7"/>
</svg> 