<svg width="128" height="128" viewBox="0 0 128 128" xmlns="http://www.w3.org/2000/svg">
  <defs>
    <!-- 渐变背景 -->
    <linearGradient id="bgGradient" x1="0%" y1="0%" x2="100%" y2="100%">
      <stop offset="0%" stop-color="#4f46e5"/>
      <stop offset="100%" stop-color="#7c3aed"/>
    </linearGradient>
    
    <!-- 下载箭头渐变 -->
    <linearGradient id="arrowGradient" x1="0%" y1="0%" x2="100%" y2="100%">
      <stop offset="0%" stop-color="#ffffff"/>
      <stop offset="100%" stop-color="#e0e7ff"/>
    </linearGradient>
    
    <!-- 阴影滤镜 -->
    <filter id="shadow" x="-20%" y="-20%" width="140%" height="140%">
      <feDropShadow dx="2" dy="2" stdDeviation="3" flood-color="#000000" flood-opacity="0.3"/>
    </filter>
  </defs>
  
  <!-- 圆形背景 -->
  <circle cx="64" cy="64" r="56" fill="url(#bgGradient)" filter="url(#shadow)"/>
  
  <!-- 云朵形状（代表网页） -->
  <path d="M30 45 C25 45, 20 50, 20 55 C20 60, 25 65, 30 65 L90 65 C95 65, 100 60, 100 55 C100 50, 95 45, 90 45 C88 40, 83 35, 75 35 C67 35, 62 40, 60 45 Z" 
        fill="#ffffff" opacity="0.9"/>
  
  <!-- 下载箭头主体 -->
  <rect x="60" y="50" width="8" height="30" fill="url(#arrowGradient)" rx="2"/>
  
  <!-- 箭头头部 -->
  <path d="M50 75 L64 90 L78 75 Z" fill="url(#arrowGradient)"/>
  
  <!-- 底部横线（代表文件夹） -->
  <rect x="35" y="95" width="58" height="6" fill="#ffffff" opacity="0.8" rx="3"/>
  
  <!-- 装饰性小点 -->
  <circle cx="45" cy="52" r="2" fill="#ffffff" opacity="0.6"/>
  <circle cx="83" cy="52" r="2" fill="#ffffff" opacity="0.6"/>
  <circle cx="64" cy="48" r="1.5" fill="#ffffff" opacity="0.7"/>
</svg> 